<?xml version="1.0"?>
<mxfile host="Electron" modified="2021-02-17T11:48:35.239Z" agent="5.0 (X11; Linux x86_64) AppleWebKit/537.36 (KHTML, like Gecko) draw.io/14.1.8 Chrome/87.0.4280.88 Electron/11.1.1 Safari/537.36" etag="_mnk6eskVNvcPYxtfFy9" version="14.1.8" type="device" pages="2">
  <diagram name="overview" id="HsTo_aGx34bOvN5b1Ruy">
    <mxGraphModel dx="2" dy="1" grid="1" gridSize="10" guides="1" tooltips="1" connect="1" arrows="1" fold="1" page="1" pageScale="1" pageWidth="1654" pageHeight="1169" math="0" shadow="0">
      <root>
        <mxCell id="EB9Nve7G8qBOnGMjLKpm-0"/>
        <mxCell id="EB9Nve7G8qBOnGMjLKpm-1" parent="EB9Nve7G8qBOnGMjLKpm-0"/>
        <mxCell id="EB9Nve7G8qBOnGMjLKpm-2" value="" style="endArrow=none;html=1;strokeWidth=9;fillColor=#76608a;strokeColor=#E6E6E6;" parent="EB9Nve7G8qBOnGMjLKpm-1" edge="1">
          <mxGeometry width="50" height="50" relative="1" as="geometry">
            <mxPoint x="480" y="1050" as="sourcePoint"/>
            <mxPoint x="480" y="470" as="targetPoint"/>
          </mxGeometry>
        </mxCell>
        <mxCell id="EB9Nve7G8qBOnGMjLKpm-3" value="" style="endArrow=none;html=1;strokeWidth=9;fillColor=#76608a;strokeColor=#E6E6E6;curved=1;" parent="EB9Nve7G8qBOnGMjLKpm-1" edge="1">
          <mxGeometry width="50" height="50" relative="1" as="geometry">
            <mxPoint x="480" y="1050" as="sourcePoint"/>
            <mxPoint x="560" y="920" as="targetPoint"/>
            <Array as="points">
              <mxPoint x="480" y="1020"/>
              <mxPoint x="560" y="980"/>
            </Array>
          </mxGeometry>
        </mxCell>
        <mxCell id="EB9Nve7G8qBOnGMjLKpm-4" value="" style="curved=1;endArrow=none;html=1;strokeWidth=9;fillColor=#76608a;endFill=0;strokeColor=#E6E6E6;" parent="EB9Nve7G8qBOnGMjLKpm-1" edge="1">
          <mxGeometry width="50" height="50" relative="1" as="geometry">
            <mxPoint x="560" y="920" as="sourcePoint"/>
            <mxPoint x="640" y="720" as="targetPoint"/>
            <Array as="points">
              <mxPoint x="560" y="860"/>
              <mxPoint x="640" y="780"/>
            </Array>
          </mxGeometry>
        </mxCell>
        <mxCell id="EB9Nve7G8qBOnGMjLKpm-5" value="" style="curved=1;endArrow=none;html=1;strokeWidth=9;fillColor=#76608a;endFill=0;strokeColor=#E6E6E6;" parent="EB9Nve7G8qBOnGMjLKpm-1" edge="1">
          <mxGeometry width="50" height="50" relative="1" as="geometry">
            <mxPoint x="640" y="720" as="sourcePoint"/>
            <mxPoint x="560" y="640" as="targetPoint"/>
            <Array as="points">
              <mxPoint x="640" y="640"/>
            </Array>
          </mxGeometry>
        </mxCell>
        <mxCell id="EB9Nve7G8qBOnGMjLKpm-6" value="" style="endArrow=none;html=1;strokeWidth=9;fillColor=#76608a;strokeColor=#E6E6E6;" parent="EB9Nve7G8qBOnGMjLKpm-1" edge="1">
          <mxGeometry width="50" height="50" relative="1" as="geometry">
            <mxPoint x="140" y="640" as="sourcePoint"/>
            <mxPoint x="560" y="640" as="targetPoint"/>
          </mxGeometry>
        </mxCell>
        <mxCell id="EB9Nve7G8qBOnGMjLKpm-7" value="&lt;b&gt;Legend&lt;/b&gt;" style="text;html=1;strokeColor=none;align=center;verticalAlign=middle;whiteSpace=wrap;rounded=0;fillColor=#a8ca40;fontColor=#FFFFFF;" parent="EB9Nve7G8qBOnGMjLKpm-1" vertex="1">
          <mxGeometry x="140.21000000000004" y="950" width="149.79" height="20" as="geometry"/>
        </mxCell>
        <mxCell id="EB9Nve7G8qBOnGMjLKpm-8" value="Best candidate" style="text;html=1;strokeColor=none;fillColor=none;align=left;verticalAlign=middle;whiteSpace=wrap;rounded=0;" parent="EB9Nve7G8qBOnGMjLKpm-1" vertex="1">
          <mxGeometry x="190.6300000000001" y="1005" width="89.37" height="20" as="geometry"/>
        </mxCell>
        <mxCell id="EB9Nve7G8qBOnGMjLKpm-9" value="" style="curved=1;html=1;strokeColor=#B85450;fontColor=#000000;fontSize=11;rounded=1;strokeWidth=5;fillColor=#76608a;endArrow=none;" parent="EB9Nve7G8qBOnGMjLKpm-1" target="EB9Nve7G8qBOnGMjLKpm-16" edge="1">
          <mxGeometry width="50" height="50" relative="1" as="geometry">
            <mxPoint x="140" y="1041" as="sourcePoint"/>
            <mxPoint x="180" y="1041" as="targetPoint"/>
            <Array as="points"/>
          </mxGeometry>
        </mxCell>
        <mxCell id="EB9Nve7G8qBOnGMjLKpm-10" value="&lt;span style=&quot;text-align: right&quot;&gt;Worse candidate&lt;/span&gt;" style="text;html=1;strokeColor=none;fillColor=none;align=left;verticalAlign=middle;whiteSpace=wrap;rounded=0;" parent="EB9Nve7G8qBOnGMjLKpm-1" vertex="1">
          <mxGeometry x="190.63" y="1031" width="99.37" height="20" as="geometry"/>
        </mxCell>
        <mxCell id="EB9Nve7G8qBOnGMjLKpm-11" value="" style="endArrow=none;html=1;strokeWidth=5;fillColor=#76608a;strokeColor=#82B366;" parent="EB9Nve7G8qBOnGMjLKpm-1" source="EB9Nve7G8qBOnGMjLKpm-14" edge="1">
          <mxGeometry width="50" height="50" relative="1" as="geometry">
            <mxPoint x="180" y="1015" as="sourcePoint"/>
            <mxPoint x="140" y="1015" as="targetPoint"/>
          </mxGeometry>
        </mxCell>
        <mxCell id="EB9Nve7G8qBOnGMjLKpm-14" value="" style="ellipse;whiteSpace=wrap;html=1;aspect=fixed;fillColor=#d5e8d4;strokeColor=#82b366;rotation=0;" parent="EB9Nve7G8qBOnGMjLKpm-1" vertex="1">
          <mxGeometry x="160" y="1005" width="20.42" height="20.42" as="geometry"/>
        </mxCell>
        <mxCell id="EB9Nve7G8qBOnGMjLKpm-15" value="" style="endArrow=none;html=1;strokeWidth=5;fillColor=#76608a;strokeColor=#82B366;" parent="EB9Nve7G8qBOnGMjLKpm-1" target="EB9Nve7G8qBOnGMjLKpm-14" edge="1">
          <mxGeometry width="50" height="50" relative="1" as="geometry">
            <mxPoint x="180" y="1015" as="sourcePoint"/>
            <mxPoint x="140" y="1015" as="targetPoint"/>
          </mxGeometry>
        </mxCell>
        <mxCell id="EB9Nve7G8qBOnGMjLKpm-16" value="" style="ellipse;whiteSpace=wrap;html=1;aspect=fixed;fillColor=#f8cecc;strokeColor=#b85450;rotation=0;" parent="EB9Nve7G8qBOnGMjLKpm-1" vertex="1">
          <mxGeometry x="160" y="1030.58" width="20.42" height="20.42" as="geometry"/>
        </mxCell>
        <mxCell id="EB9Nve7G8qBOnGMjLKpm-17" value="" style="whiteSpace=wrap;html=1;rounded=0;shadow=0;strokeWidth=1;fontSize=24;align=right;strokeColor=#3A5431;fillColor=#E6E6E6;" parent="EB9Nve7G8qBOnGMjLKpm-1" vertex="1">
          <mxGeometry x="160" y="980" width="20" height="20" as="geometry"/>
        </mxCell>
        <mxCell id="EB9Nve7G8qBOnGMjLKpm-18" value="" style="ellipse;whiteSpace=wrap;html=1;aspect=fixed;fillColor=none;" parent="EB9Nve7G8qBOnGMjLKpm-1" vertex="1">
          <mxGeometry x="319.8" y="514.79" width="140.41" height="140.41" as="geometry"/>
        </mxCell>
        <mxCell id="EB9Nve7G8qBOnGMjLKpm-19" value="" style="ellipse;whiteSpace=wrap;html=1;aspect=fixed;fillColor=none;" parent="EB9Nve7G8qBOnGMjLKpm-1" vertex="1">
          <mxGeometry x="439.79" y="869.59" width="140.41" height="140.41" as="geometry"/>
        </mxCell>
        <mxCell id="EB9Nve7G8qBOnGMjLKpm-20" value="" style="ellipse;whiteSpace=wrap;html=1;aspect=fixed;fillColor=none;" parent="EB9Nve7G8qBOnGMjLKpm-1" vertex="1">
          <mxGeometry x="449.89000000000004" y="749.79" width="140.41" height="140.41" as="geometry"/>
        </mxCell>
        <mxCell id="EB9Nve7G8qBOnGMjLKpm-21" value="" style="ellipse;whiteSpace=wrap;html=1;aspect=fixed;fillColor=none;" parent="EB9Nve7G8qBOnGMjLKpm-1" vertex="1">
          <mxGeometry x="459.79" y="629.79" width="140.41" height="140.41" as="geometry"/>
        </mxCell>
        <mxCell id="EB9Nve7G8qBOnGMjLKpm-22" value="" style="ellipse;whiteSpace=wrap;html=1;aspect=fixed;fillColor=none;" parent="EB9Nve7G8qBOnGMjLKpm-1" vertex="1">
          <mxGeometry x="439.79" y="509.58000000000004" width="140.41" height="140.41" as="geometry"/>
        </mxCell>
        <mxCell id="EB9Nve7G8qBOnGMjLKpm-23" value="" style="ellipse;whiteSpace=wrap;html=1;aspect=fixed;fillColor=none;" parent="EB9Nve7G8qBOnGMjLKpm-1" vertex="1">
          <mxGeometry x="179.8" y="549.79" width="140.41" height="140.41" as="geometry"/>
        </mxCell>
        <mxCell id="EB9Nve7G8qBOnGMjLKpm-24" style="edgeStyle=none;orthogonalLoop=1;jettySize=auto;html=1;endArrow=none;strokeWidth=5;fillColor=#76608a;strokeColor=#B85450;" parent="EB9Nve7G8qBOnGMjLKpm-1" source="EB9Nve7G8qBOnGMjLKpm-25" target="EB9Nve7G8qBOnGMjLKpm-35" edge="1">
          <mxGeometry relative="1" as="geometry"/>
        </mxCell>
        <mxCell id="EB9Nve7G8qBOnGMjLKpm-25" value="" style="whiteSpace=wrap;html=1;rounded=0;shadow=0;strokeWidth=1;fontSize=24;align=right;strokeColor=#3A5431;fillColor=#E6E6E6;" parent="EB9Nve7G8qBOnGMjLKpm-1" vertex="1">
          <mxGeometry x="500" y="930" width="20" height="20" as="geometry"/>
        </mxCell>
        <mxCell id="EB9Nve7G8qBOnGMjLKpm-26" style="edgeStyle=none;orthogonalLoop=1;jettySize=auto;html=1;endArrow=none;strokeColor=#B85450;strokeWidth=5;fillColor=#76608a;" parent="EB9Nve7G8qBOnGMjLKpm-1" source="EB9Nve7G8qBOnGMjLKpm-27" target="EB9Nve7G8qBOnGMjLKpm-44" edge="1">
          <mxGeometry relative="1" as="geometry"/>
        </mxCell>
        <mxCell id="EB9Nve7G8qBOnGMjLKpm-27" value="" style="whiteSpace=wrap;html=1;rounded=0;shadow=0;strokeWidth=1;fontSize=24;align=right;strokeColor=#3A5431;fillColor=#E6E6E6;" parent="EB9Nve7G8qBOnGMjLKpm-1" vertex="1">
          <mxGeometry x="510" y="810" width="20" height="20" as="geometry"/>
        </mxCell>
        <mxCell id="EB9Nve7G8qBOnGMjLKpm-28" style="edgeStyle=none;orthogonalLoop=1;jettySize=auto;html=1;endArrow=none;strokeColor=#B85450;strokeWidth=5;fillColor=#76608a;" parent="EB9Nve7G8qBOnGMjLKpm-1" source="EB9Nve7G8qBOnGMjLKpm-29" target="EB9Nve7G8qBOnGMjLKpm-37" edge="1">
          <mxGeometry relative="1" as="geometry"/>
        </mxCell>
        <mxCell id="EB9Nve7G8qBOnGMjLKpm-29" value="" style="whiteSpace=wrap;html=1;rounded=0;shadow=0;strokeWidth=1;fontSize=24;align=right;strokeColor=#3A5431;fillColor=#E6E6E6;" parent="EB9Nve7G8qBOnGMjLKpm-1" vertex="1">
          <mxGeometry x="520" y="690" width="20" height="20" as="geometry"/>
        </mxCell>
        <mxCell id="EB9Nve7G8qBOnGMjLKpm-30" style="edgeStyle=none;orthogonalLoop=1;jettySize=auto;html=1;endArrow=none;strokeColor=#B85450;strokeWidth=5;fillColor=#76608a;" parent="EB9Nve7G8qBOnGMjLKpm-1" source="EB9Nve7G8qBOnGMjLKpm-31" target="EB9Nve7G8qBOnGMjLKpm-45" edge="1">
          <mxGeometry relative="1" as="geometry"/>
        </mxCell>
        <mxCell id="EB9Nve7G8qBOnGMjLKpm-31" value="" style="whiteSpace=wrap;html=1;rounded=0;shadow=0;strokeWidth=1;fontSize=24;align=right;strokeColor=#3A5431;fillColor=#E6E6E6;" parent="EB9Nve7G8qBOnGMjLKpm-1" vertex="1">
          <mxGeometry x="500" y="570" width="20" height="20" as="geometry"/>
        </mxCell>
        <mxCell id="EB9Nve7G8qBOnGMjLKpm-32" style="edgeStyle=none;orthogonalLoop=1;jettySize=auto;html=1;endArrow=none;strokeColor=#82B366;strokeWidth=5;fillColor=#76608a;" parent="EB9Nve7G8qBOnGMjLKpm-1" source="EB9Nve7G8qBOnGMjLKpm-33" target="EB9Nve7G8qBOnGMjLKpm-42" edge="1">
          <mxGeometry relative="1" as="geometry"/>
        </mxCell>
        <mxCell id="EB9Nve7G8qBOnGMjLKpm-33" value="" style="whiteSpace=wrap;html=1;rounded=0;shadow=0;strokeWidth=1;fontSize=24;align=right;strokeColor=#3A5431;fillColor=#E6E6E6;" parent="EB9Nve7G8qBOnGMjLKpm-1" vertex="1">
          <mxGeometry x="380" y="575" width="20" height="20" as="geometry"/>
        </mxCell>
        <mxCell id="EB9Nve7G8qBOnGMjLKpm-34" value="" style="whiteSpace=wrap;html=1;rounded=0;shadow=0;strokeWidth=1;fontSize=24;align=right;strokeColor=#3A5431;fillColor=#E6E6E6;" parent="EB9Nve7G8qBOnGMjLKpm-1" vertex="1">
          <mxGeometry x="240" y="610" width="20" height="20" as="geometry"/>
        </mxCell>
        <mxCell id="EB9Nve7G8qBOnGMjLKpm-35" value="" style="ellipse;whiteSpace=wrap;html=1;aspect=fixed;fillColor=#f8cecc;strokeColor=#b85450;rotation=0;" parent="EB9Nve7G8qBOnGMjLKpm-1" vertex="1">
          <mxGeometry x="549.6800000000001" y="929.58" width="20.42" height="20.42" as="geometry"/>
        </mxCell>
        <mxCell id="EB9Nve7G8qBOnGMjLKpm-36" style="edgeStyle=none;orthogonalLoop=1;jettySize=auto;html=1;endArrow=none;strokeColor=#82B366;strokeWidth=5;fillColor=#76608a;" parent="EB9Nve7G8qBOnGMjLKpm-1" source="EB9Nve7G8qBOnGMjLKpm-50" target="EB9Nve7G8qBOnGMjLKpm-27" edge="1">
          <mxGeometry relative="1" as="geometry"/>
        </mxCell>
        <mxCell id="EB9Nve7G8qBOnGMjLKpm-37" value="" style="ellipse;whiteSpace=wrap;html=1;aspect=fixed;fillColor=#f8cecc;strokeColor=#b85450;rotation=0;" parent="EB9Nve7G8qBOnGMjLKpm-1" vertex="1">
          <mxGeometry x="519.5799999999999" y="629.57" width="20.42" height="20.42" as="geometry"/>
        </mxCell>
        <mxCell id="EB9Nve7G8qBOnGMjLKpm-38" style="edgeStyle=none;orthogonalLoop=1;jettySize=auto;html=1;endArrow=none;strokeColor=#82B366;strokeWidth=5;fillColor=#76608a;" parent="EB9Nve7G8qBOnGMjLKpm-1" source="EB9Nve7G8qBOnGMjLKpm-52" target="EB9Nve7G8qBOnGMjLKpm-29" edge="1">
          <mxGeometry relative="1" as="geometry"/>
        </mxCell>
        <mxCell id="EB9Nve7G8qBOnGMjLKpm-39" style="edgeStyle=none;orthogonalLoop=1;jettySize=auto;html=1;endArrow=none;strokeColor=#82B366;strokeWidth=5;fillColor=#76608a;" parent="EB9Nve7G8qBOnGMjLKpm-1" source="EB9Nve7G8qBOnGMjLKpm-41" target="EB9Nve7G8qBOnGMjLKpm-31" edge="1">
          <mxGeometry relative="1" as="geometry"/>
        </mxCell>
        <mxCell id="EB9Nve7G8qBOnGMjLKpm-41" value="" style="ellipse;whiteSpace=wrap;html=1;aspect=fixed;fillColor=#d5e8d4;strokeColor=#82b366;rotation=0;" parent="EB9Nve7G8qBOnGMjLKpm-1" vertex="1">
          <mxGeometry x="469.36999999999995" y="569.58" width="20.42" height="20.42" as="geometry"/>
        </mxCell>
        <mxCell id="EB9Nve7G8qBOnGMjLKpm-42" value="" style="ellipse;whiteSpace=wrap;html=1;aspect=fixed;fillColor=#d5e8d4;strokeColor=#82b366;rotation=0;" parent="EB9Nve7G8qBOnGMjLKpm-1" vertex="1">
          <mxGeometry x="379.99999999999994" y="629.58" width="20.42" height="20.42" as="geometry"/>
        </mxCell>
        <mxCell id="EB9Nve7G8qBOnGMjLKpm-43" value="" style="ellipse;whiteSpace=wrap;html=1;aspect=fixed;fillColor=#d5e8d4;strokeColor=#82b366;rotation=0;" parent="EB9Nve7G8qBOnGMjLKpm-1" vertex="1">
          <mxGeometry x="239.57999999999993" y="630" width="20.42" height="20.42" as="geometry"/>
        </mxCell>
        <mxCell id="EB9Nve7G8qBOnGMjLKpm-44" value="" style="ellipse;whiteSpace=wrap;html=1;aspect=fixed;fillColor=#f8cecc;strokeColor=#b85450;rotation=0;" parent="EB9Nve7G8qBOnGMjLKpm-1" vertex="1">
          <mxGeometry x="567" y="838" width="20.42" height="20.42" as="geometry"/>
        </mxCell>
        <mxCell id="EB9Nve7G8qBOnGMjLKpm-45" value="" style="ellipse;whiteSpace=wrap;html=1;aspect=fixed;fillColor=#f8cecc;strokeColor=#b85450;rotation=0;" parent="EB9Nve7G8qBOnGMjLKpm-1" vertex="1">
          <mxGeometry x="499.26" y="629.79" width="20.42" height="20.42" as="geometry"/>
        </mxCell>
        <mxCell id="EB9Nve7G8qBOnGMjLKpm-46" value="" style="endArrow=none;html=1;strokeWidth=5;fillColor=#76608a;strokeColor=#82B366;" parent="EB9Nve7G8qBOnGMjLKpm-1" source="EB9Nve7G8qBOnGMjLKpm-48" target="EB9Nve7G8qBOnGMjLKpm-25" edge="1">
          <mxGeometry width="50" height="50" relative="1" as="geometry">
            <mxPoint x="680" y="920" as="sourcePoint"/>
            <mxPoint x="730" y="870" as="targetPoint"/>
          </mxGeometry>
        </mxCell>
        <mxCell id="EB9Nve7G8qBOnGMjLKpm-48" value="" style="ellipse;whiteSpace=wrap;html=1;aspect=fixed;fillColor=#d5e8d4;strokeColor=#82b366;rotation=0;" parent="EB9Nve7G8qBOnGMjLKpm-1" vertex="1">
          <mxGeometry x="470" y="929.58" width="20.42" height="20.42" as="geometry"/>
        </mxCell>
        <mxCell id="EB9Nve7G8qBOnGMjLKpm-50" value="" style="ellipse;whiteSpace=wrap;html=1;aspect=fixed;fillColor=#d5e8d4;strokeColor=#82b366;rotation=0;" parent="EB9Nve7G8qBOnGMjLKpm-1" vertex="1">
          <mxGeometry x="469.58" y="810" width="20.42" height="20.42" as="geometry"/>
        </mxCell>
        <mxCell id="EB9Nve7G8qBOnGMjLKpm-52" value="" style="ellipse;whiteSpace=wrap;html=1;aspect=fixed;fillColor=#d5e8d4;strokeColor=#82b366;rotation=0;" parent="EB9Nve7G8qBOnGMjLKpm-1" vertex="1">
          <mxGeometry x="470.41999999999996" y="689.58" width="20.42" height="20.42" as="geometry"/>
        </mxCell>
        <mxCell id="EB9Nve7G8qBOnGMjLKpm-57" value="Sampling point" style="text;html=1;strokeColor=none;fillColor=none;align=left;verticalAlign=middle;whiteSpace=wrap;rounded=0;" parent="EB9Nve7G8qBOnGMjLKpm-1" vertex="1">
          <mxGeometry x="190.6300000000001" y="980" width="89.37" height="20" as="geometry"/>
        </mxCell>
        <mxCell id="EB9Nve7G8qBOnGMjLKpm-58" value="" style="endArrow=none;html=1;strokeWidth=5;fillColor=#76608a;strokeColor=#82B366;" parent="EB9Nve7G8qBOnGMjLKpm-1" edge="1">
          <mxGeometry width="50" height="50" relative="1" as="geometry">
            <mxPoint x="180" y="990" as="sourcePoint"/>
            <mxPoint x="180.4200000000119" y="990.21" as="targetPoint"/>
          </mxGeometry>
        </mxCell>
      </root>
    </mxGraphModel>
  </diagram>
  <diagram id="nyHCKi9QWK8JL2qzV-X6" name="with skipping (not included by now)">
    <mxGraphModel dx="1102" dy="1000" grid="1" gridSize="10" guides="1" tooltips="1" connect="1" arrows="1" fold="1" page="1" pageScale="1" pageWidth="1654" pageHeight="1169" math="0" shadow="0">
      <root>
        <mxCell id="hiGJrkWXkCQ1DxNBdZDH-0"/>
        <mxCell id="hiGJrkWXkCQ1DxNBdZDH-1" parent="hiGJrkWXkCQ1DxNBdZDH-0"/>
        <mxCell id="37" value="" style="group" parent="hiGJrkWXkCQ1DxNBdZDH-1" vertex="1" connectable="0">
          <mxGeometry x="59.80000000000001" y="430.00000000000006" width="550.4000000000001" height="580" as="geometry"/>
        </mxCell>
        <mxCell id="25" value="" style="ellipse;whiteSpace=wrap;html=1;aspect=fixed;fillColor=none;" parent="37" vertex="1">
          <mxGeometry x="379.99" y="439.59" width="140.41" height="140.41" as="geometry"/>
        </mxCell>
        <mxCell id="26" value="" style="ellipse;whiteSpace=wrap;html=1;aspect=fixed;fillColor=none;" parent="37" vertex="1">
          <mxGeometry x="390.09000000000003" y="319.7899999999999" width="140.41" height="140.41" as="geometry"/>
        </mxCell>
        <mxCell id="27" value="" style="ellipse;whiteSpace=wrap;html=1;aspect=fixed;fillColor=none;" parent="37" vertex="1">
          <mxGeometry x="399.99" y="199.7899999999999" width="140.41" height="140.41" as="geometry"/>
        </mxCell>
        <mxCell id="28" value="" style="ellipse;whiteSpace=wrap;html=1;aspect=fixed;fillColor=none;" parent="37" vertex="1">
          <mxGeometry x="409.99" y="79.57999999999998" width="140.41" height="140.41" as="geometry"/>
        </mxCell>
        <mxCell id="29" value="" style="ellipse;whiteSpace=wrap;html=1;aspect=fixed;fillColor=none;" parent="37" vertex="1">
          <mxGeometry x="379.99" width="140.41" height="140.41" as="geometry"/>
        </mxCell>
        <mxCell id="30" value="" style="ellipse;whiteSpace=wrap;html=1;aspect=fixed;fillColor=none;" parent="37" vertex="1">
          <mxGeometry x="269.99" y="20.21999999999997" width="140.41" height="140.41" as="geometry"/>
        </mxCell>
        <mxCell id="31" value="" style="ellipse;whiteSpace=wrap;html=1;aspect=fixed;fillColor=none;" parent="37" vertex="1">
          <mxGeometry x="140" y="84.7899999999999" width="140.41" height="140.41" as="geometry"/>
        </mxCell>
        <mxCell id="32" value="" style="ellipse;whiteSpace=wrap;html=1;aspect=fixed;fillColor=none;" parent="37" vertex="1">
          <mxGeometry y="119.7899999999999" width="140.41" height="140.41" as="geometry"/>
        </mxCell>
        <mxCell id="0" value="" style="endArrow=none;html=1;strokeWidth=3;fillColor=#76608a;strokeColor=#B3B3B3;" parent="hiGJrkWXkCQ1DxNBdZDH-1" edge="1">
          <mxGeometry width="50" height="50" relative="1" as="geometry">
            <mxPoint x="480" y="960" as="sourcePoint"/>
            <mxPoint x="480" y="450" as="targetPoint"/>
          </mxGeometry>
        </mxCell>
        <mxCell id="1" value="" style="endArrow=none;html=1;strokeWidth=3;fillColor=#76608a;strokeColor=#B3B3B3;" parent="hiGJrkWXkCQ1DxNBdZDH-1" edge="1">
          <mxGeometry width="50" height="50" relative="1" as="geometry">
            <mxPoint x="560" y="960" as="sourcePoint"/>
            <mxPoint x="560" y="920" as="targetPoint"/>
          </mxGeometry>
        </mxCell>
        <mxCell id="3" value="" style="curved=1;endArrow=none;html=1;strokeColor=#B3B3B3;strokeWidth=3;fillColor=#76608a;endFill=0;" parent="hiGJrkWXkCQ1DxNBdZDH-1" edge="1">
          <mxGeometry width="50" height="50" relative="1" as="geometry">
            <mxPoint x="560" y="920" as="sourcePoint"/>
            <mxPoint x="640" y="720" as="targetPoint"/>
            <Array as="points">
              <mxPoint x="560" y="860"/>
              <mxPoint x="640" y="780"/>
            </Array>
          </mxGeometry>
        </mxCell>
        <mxCell id="4" value="" style="curved=1;endArrow=none;html=1;strokeColor=#B3B3B3;strokeWidth=3;fillColor=#76608a;endFill=0;" parent="hiGJrkWXkCQ1DxNBdZDH-1" edge="1">
          <mxGeometry width="50" height="50" relative="1" as="geometry">
            <mxPoint x="640" y="720" as="sourcePoint"/>
            <mxPoint x="560" y="640" as="targetPoint"/>
            <Array as="points">
              <mxPoint x="640" y="640"/>
            </Array>
          </mxGeometry>
        </mxCell>
        <mxCell id="5" value="" style="endArrow=none;html=1;strokeColor=#B3B3B3;strokeWidth=3;fillColor=#76608a;" parent="hiGJrkWXkCQ1DxNBdZDH-1" edge="1">
          <mxGeometry width="50" height="50" relative="1" as="geometry">
            <mxPoint x="80" y="640" as="sourcePoint"/>
            <mxPoint x="560" y="640" as="targetPoint"/>
          </mxGeometry>
        </mxCell>
        <mxCell id="45" style="edgeStyle=none;orthogonalLoop=1;jettySize=auto;html=1;endArrow=none;strokeWidth=5;fillColor=#76608a;strokeColor=#B85450;" parent="hiGJrkWXkCQ1DxNBdZDH-1" source="6" target="16" edge="1">
          <mxGeometry relative="1" as="geometry"/>
        </mxCell>
        <mxCell id="6" value="" style="whiteSpace=wrap;html=1;rounded=0;shadow=0;strokeWidth=1;fontSize=24;align=right;strokeColor=#3A5431;fillColor=#E6E6E6;" parent="hiGJrkWXkCQ1DxNBdZDH-1" vertex="1">
          <mxGeometry x="500" y="930" width="20" height="20" as="geometry"/>
        </mxCell>
        <mxCell id="46" style="edgeStyle=none;orthogonalLoop=1;jettySize=auto;html=1;endArrow=none;strokeColor=#B85450;strokeWidth=5;fillColor=#76608a;" parent="hiGJrkWXkCQ1DxNBdZDH-1" source="8" target="33" edge="1">
          <mxGeometry relative="1" as="geometry"/>
        </mxCell>
        <mxCell id="8" value="" style="whiteSpace=wrap;html=1;rounded=0;shadow=0;strokeWidth=1;fontSize=24;align=right;strokeColor=#3A5431;fillColor=#E6E6E6;" parent="hiGJrkWXkCQ1DxNBdZDH-1" vertex="1">
          <mxGeometry x="510" y="810" width="20" height="20" as="geometry"/>
        </mxCell>
        <mxCell id="47" style="edgeStyle=none;orthogonalLoop=1;jettySize=auto;html=1;endArrow=none;strokeColor=#B85450;strokeWidth=5;fillColor=#76608a;" parent="hiGJrkWXkCQ1DxNBdZDH-1" source="9" target="18" edge="1">
          <mxGeometry relative="1" as="geometry"/>
        </mxCell>
        <mxCell id="9" value="" style="whiteSpace=wrap;html=1;rounded=0;shadow=0;strokeWidth=1;fontSize=24;align=right;strokeColor=#3A5431;fillColor=#E6E6E6;" parent="hiGJrkWXkCQ1DxNBdZDH-1" vertex="1">
          <mxGeometry x="520" y="690" width="20" height="20" as="geometry"/>
        </mxCell>
        <mxCell id="48" style="edgeStyle=none;orthogonalLoop=1;jettySize=auto;html=1;endArrow=none;strokeColor=#82B366;strokeWidth=5;fillColor=#76608a;" parent="hiGJrkWXkCQ1DxNBdZDH-1" source="10" target="34" edge="1">
          <mxGeometry relative="1" as="geometry"/>
        </mxCell>
        <mxCell id="10" value="" style="whiteSpace=wrap;html=1;rounded=0;shadow=0;strokeWidth=1;fontSize=24;align=right;strokeColor=#3A5431;fillColor=#E6E6E6;" parent="hiGJrkWXkCQ1DxNBdZDH-1" vertex="1">
          <mxGeometry x="530" y="570" width="20" height="20" as="geometry"/>
        </mxCell>
        <mxCell id="11" value="" style="whiteSpace=wrap;html=1;rounded=0;shadow=0;strokeWidth=1;fontSize=24;align=right;strokeColor=#3A5431;fillColor=#E6E6E6;" parent="hiGJrkWXkCQ1DxNBdZDH-1" vertex="1">
          <mxGeometry x="500" y="490" width="20" height="20" as="geometry"/>
        </mxCell>
        <mxCell id="12" value="" style="whiteSpace=wrap;html=1;rounded=0;shadow=0;strokeWidth=1;fontSize=24;align=right;strokeColor=#3A5431;fillColor=#E6E6E6;" parent="hiGJrkWXkCQ1DxNBdZDH-1" vertex="1">
          <mxGeometry x="390" y="510.42" width="20" height="20" as="geometry"/>
        </mxCell>
        <mxCell id="44" style="edgeStyle=none;orthogonalLoop=1;jettySize=auto;html=1;endArrow=none;strokeColor=#82B366;strokeWidth=5;fillColor=#76608a;" parent="hiGJrkWXkCQ1DxNBdZDH-1" source="13" target="23" edge="1">
          <mxGeometry relative="1" as="geometry"/>
        </mxCell>
        <mxCell id="13" value="" style="whiteSpace=wrap;html=1;rounded=0;shadow=0;strokeWidth=1;fontSize=24;align=right;strokeColor=#3A5431;fillColor=#E6E6E6;" parent="hiGJrkWXkCQ1DxNBdZDH-1" vertex="1">
          <mxGeometry x="260" y="575" width="20" height="20" as="geometry"/>
        </mxCell>
        <mxCell id="14" value="" style="whiteSpace=wrap;html=1;rounded=0;shadow=0;strokeWidth=1;fontSize=24;align=right;strokeColor=#3A5431;fillColor=#E6E6E6;" parent="hiGJrkWXkCQ1DxNBdZDH-1" vertex="1">
          <mxGeometry x="120" y="610" width="20" height="20" as="geometry"/>
        </mxCell>
        <mxCell id="15" value="" style="ellipse;whiteSpace=wrap;html=1;aspect=fixed;fillColor=#d5e8d4;strokeColor=#82b366;rotation=0;" parent="hiGJrkWXkCQ1DxNBdZDH-1" vertex="1">
          <mxGeometry x="470" y="929.58" width="20.42" height="20.42" as="geometry"/>
        </mxCell>
        <mxCell id="16" value="" style="ellipse;whiteSpace=wrap;html=1;aspect=fixed;fillColor=#f8cecc;strokeColor=#b85450;rotation=0;" parent="hiGJrkWXkCQ1DxNBdZDH-1" vertex="1">
          <mxGeometry x="549.6800000000001" y="929.58" width="20.42" height="20.42" as="geometry"/>
        </mxCell>
        <mxCell id="40" style="edgeStyle=none;orthogonalLoop=1;jettySize=auto;html=1;endArrow=none;strokeColor=#82B366;strokeWidth=5;fillColor=#76608a;" parent="hiGJrkWXkCQ1DxNBdZDH-1" source="17" target="8" edge="1">
          <mxGeometry relative="1" as="geometry"/>
        </mxCell>
        <mxCell id="17" value="" style="ellipse;whiteSpace=wrap;html=1;aspect=fixed;fillColor=#d5e8d4;strokeColor=#82b366;rotation=0;" parent="hiGJrkWXkCQ1DxNBdZDH-1" vertex="1">
          <mxGeometry x="469.58" y="810" width="20.42" height="20.42" as="geometry"/>
        </mxCell>
        <mxCell id="18" value="" style="ellipse;whiteSpace=wrap;html=1;aspect=fixed;fillColor=#f8cecc;strokeColor=#b85450;rotation=0;" parent="hiGJrkWXkCQ1DxNBdZDH-1" vertex="1">
          <mxGeometry x="519.5799999999999" y="629.57" width="20.42" height="20.42" as="geometry"/>
        </mxCell>
        <mxCell id="41" style="edgeStyle=none;orthogonalLoop=1;jettySize=auto;html=1;endArrow=none;strokeColor=#82B366;strokeWidth=5;fillColor=#76608a;" parent="hiGJrkWXkCQ1DxNBdZDH-1" source="20" target="9" edge="1">
          <mxGeometry relative="1" as="geometry"/>
        </mxCell>
        <mxCell id="20" value="" style="ellipse;whiteSpace=wrap;html=1;aspect=fixed;fillColor=#d5e8d4;strokeColor=#82b366;rotation=0;" parent="hiGJrkWXkCQ1DxNBdZDH-1" vertex="1">
          <mxGeometry x="470.41999999999996" y="689.58" width="20.42" height="20.42" as="geometry"/>
        </mxCell>
        <mxCell id="42" style="edgeStyle=none;orthogonalLoop=1;jettySize=auto;html=1;endArrow=none;strokeColor=#82B366;strokeWidth=5;fillColor=#76608a;" parent="hiGJrkWXkCQ1DxNBdZDH-1" source="21" target="10" edge="1">
          <mxGeometry relative="1" as="geometry"/>
        </mxCell>
        <mxCell id="21" value="" style="ellipse;whiteSpace=wrap;html=1;aspect=fixed;fillColor=#d5e8d4;strokeColor=#82b366;rotation=0;" parent="hiGJrkWXkCQ1DxNBdZDH-1" vertex="1">
          <mxGeometry x="469.36999999999995" y="569.58" width="20.42" height="20.42" as="geometry"/>
        </mxCell>
        <mxCell id="43" style="edgeStyle=none;orthogonalLoop=1;jettySize=auto;html=1;endArrow=none;strokeColor=#82B366;strokeWidth=5;fillColor=#76608a;" parent="hiGJrkWXkCQ1DxNBdZDH-1" source="22" target="11" edge="1">
          <mxGeometry relative="1" as="geometry"/>
        </mxCell>
        <mxCell id="22" value="" style="ellipse;whiteSpace=wrap;html=1;aspect=fixed;fillColor=#d5e8d4;strokeColor=#82b366;rotation=0;" parent="hiGJrkWXkCQ1DxNBdZDH-1" vertex="1">
          <mxGeometry x="469.99999999999994" y="490" width="20.42" height="20.42" as="geometry"/>
        </mxCell>
        <mxCell id="23" value="" style="ellipse;whiteSpace=wrap;html=1;aspect=fixed;fillColor=#d5e8d4;strokeColor=#82b366;rotation=0;" parent="hiGJrkWXkCQ1DxNBdZDH-1" vertex="1">
          <mxGeometry x="259.99999999999994" y="629.58" width="20.42" height="20.42" as="geometry"/>
        </mxCell>
        <mxCell id="24" value="" style="ellipse;whiteSpace=wrap;html=1;aspect=fixed;fillColor=#d5e8d4;strokeColor=#82b366;rotation=0;" parent="hiGJrkWXkCQ1DxNBdZDH-1" vertex="1">
          <mxGeometry x="119.57999999999993" y="630" width="20.42" height="20.42" as="geometry"/>
        </mxCell>
        <mxCell id="33" value="" style="ellipse;whiteSpace=wrap;html=1;aspect=fixed;fillColor=#f8cecc;strokeColor=#b85450;rotation=0;" parent="hiGJrkWXkCQ1DxNBdZDH-1" vertex="1">
          <mxGeometry x="567" y="838" width="20.42" height="20.42" as="geometry"/>
        </mxCell>
        <mxCell id="34" value="" style="ellipse;whiteSpace=wrap;html=1;aspect=fixed;fillColor=#d5e8d4;strokeColor=#82b366;rotation=0;" parent="hiGJrkWXkCQ1DxNBdZDH-1" vertex="1">
          <mxGeometry x="529.26" y="629.79" width="20.42" height="20.42" as="geometry"/>
        </mxCell>
        <mxCell id="38" value="" style="endArrow=none;html=1;strokeWidth=5;fillColor=#76608a;strokeColor=#82B366;" parent="hiGJrkWXkCQ1DxNBdZDH-1" source="15" target="6" edge="1">
          <mxGeometry width="50" height="50" relative="1" as="geometry">
            <mxPoint x="680" y="920" as="sourcePoint"/>
            <mxPoint x="730" y="870" as="targetPoint"/>
          </mxGeometry>
        </mxCell>
      </root>
    </mxGraphModel>
  </diagram>
</mxfile>
